<?xml version="1.0" encoding="utf-8"?>
<!-- Generator: Adobe Illustrator 25.0.0, SVG Export Plug-In . SVG Version: 6.00 Build 0)  -->
<svg version="1.1" id="Layer_1" xmlns="http://www.w3.org/2000/svg" xmlns:xlink="http://www.w3.org/1999/xlink" x="0px" y="0px"
	 viewBox="0 0 1920 1080" style="enable-background:new 0 0 1920 1080;" xml:space="preserve">
<style type="text/css">
	.st0{fill:#FC8004;stroke:#000000;stroke-miterlimit:10;}
	.st1{fill:#FFFFFF;}
	.st2{fill:#FC8004;}
	.st3{fill:#FD7F00;}
</style>
<g>
	<ellipse class="st0" cx="993.7" cy="475.3" rx="253.7" ry="253.8"/>
	<g>
		<g>
			<path class="st1" d="M1202.9,475.2c0,27.3-0.1,54.5,0.1,81.8c0,4.3-1.5,6.9-5.4,8.8c-54.6,27.2-109.2,54.5-163.8,81.9
				c-3.5,1.7-6.4,1.7-9.9,0c-54.7-27.5-109.4-54.8-164.2-82.1c-3.5-1.7-5-4-5-7.9c0.1-54.9,0.1-109.8,0-164.6c0-3.9,1.5-6.2,5-7.9
				c54.8-27.3,109.5-54.6,164.2-82.1c3.6-1.8,6.6-1.7,10.2,0.1c54.2,27.2,108.5,54.4,162.8,81.3c4.6,2.3,6.2,5.2,6.2,10.2
				C1202.8,421.4,1202.9,448.3,1202.9,475.2z M1190.9,401.1c-1.4,0.7-2.2,1-3,1.4c-50.1,25-100.2,50.1-150.4,75.1
				c-2.2,1.1-2.7,2.4-2.7,4.6c0.1,49.4,0,98.8,0.1,148.1c0,0.9,0.1,1.8,0.2,3c1.3-0.6,2.2-1,3.1-1.4c49.9-25,99.8-49.9,149.8-74.8
				c2.5-1.2,3-2.7,3-5.2c-0.1-49,0-98,0-147C1190.9,403.8,1190.9,402.7,1190.9,401.1z M974.9,454.9c0,2,0,3.4,0,4.7
				c0,16.6,0,33.2,0,49.9c0,3.3-0.6,6-4,7.3c-3.2,1.3-5.5-0.4-7.6-2.6c-6.3-6.4-12.7-12.8-19.1-19c-1.1-1.1-3-1.8-4.5-1.9
				c-5.2-0.2-10.5-0.1-15.7-0.1c-7.5,0-9.1-1.6-9.1-8.9c0-18.6,0-37.2,0.1-55.9c0-2.6-0.7-4-3.1-5.1c-13.9-6.8-27.7-13.8-41.6-20.7
				c-1-0.5-2-0.9-3.3-1.4c-0.1,1.2-0.1,2-0.1,2.9c0,49.5,0,99-0.1,148.5c0,2.4,0.9,3.5,2.9,4.5c49.9,24.9,99.8,49.8,149.7,74.8
				c1,0.5,2.1,1,3.5,1.6c0-24.9,0-49.1,0-73.4c0-25.9,0-51.7-0.1-77.6c0-1.5-0.7-3.7-1.8-4.2C1005.9,470.4,990.7,462.9,974.9,454.9z
				 M1183.1,391.2c-1.5-0.8-2.5-1.4-3.6-2c-14.7-7.4-29.5-14.7-44.2-22.2c-2.5-1.3-4.4-1.2-6.9,0.1c-44.8,23.9-89.7,47.7-134.6,71.5
				c-3.8,2-7.6,4-11.8,6.3c1.5,0.8,2.4,1.3,3.4,1.8c13.5,6.8,27,13.4,40.5,20.3c2.2,1.1,3.8,0.9,5.8-0.1
				c49.2-24.7,98.5-49.2,147.7-73.9C1180.6,392.7,1181.7,392,1183.1,391.2z M874.5,391.1c1.8,1,3,1.7,4.2,2.3
				c12.9,6.5,25.9,12.9,38.8,19.5c2.6,1.3,4.5,1.1,6.8-0.2c47.6-25.3,95.2-50.6,142.8-75.9c1.1-0.6,2.1-1.2,3.5-2.1
				c-13.2-6.6-26-12.9-38.6-19.4c-2.3-1.2-4-1-6.2,0.1c-33.4,16.8-66.9,33.5-100.4,50.2C908.7,374,892,382.4,874.5,391.1z
				 M1118.7,358.8c-11.5-5.7-22.3-11.2-33.2-16.5c-1.1-0.5-3.1,0-4.4,0.6c-48,25.4-95.9,50.9-143.9,76.3c-0.9,0.5-1.7,1-3.1,1.8
				c10.8,5.4,21.1,10.4,31.2,15.7c2.6,1.3,4.4,1.1,6.8-0.2c41.4-22.1,82.9-44.1,124.3-66.1C1103.7,366.8,1110.8,363,1118.7,358.8z
				 M927.1,481.2c5.1,0,10.1,0.2,15.1-0.1c3.7-0.2,6.5,0.9,8.9,3.7c3.5,4,7.2,7.7,10.8,11.6c0.3-0.3,0.7-0.5,1-0.8
				c0-15,0.1-29.9-0.1-44.9c0-1.1-1.4-2.5-2.5-3.1c-7.6-4-15.4-7.7-23.1-11.6c-3.3-1.6-6.6-3.3-10.2-5.1
				C927.1,448,927.1,464.4,927.1,481.2z"/>
			<path class="st2" d="M1190.9,401.1c0,1.6,0,2.7,0,3.8c0,49,0,98,0,147c0,2.5-0.5,4-3,5.2c-50,24.9-99.9,49.9-149.8,74.8
				c-0.9,0.4-1.8,0.8-3.1,1.4c-0.1-1.2-0.2-2.1-0.2-3c0-49.4,0-98.8-0.1-148.1c0-2.2,0.5-3.6,2.7-4.6c50.2-25,100.3-50,150.4-75.1
				C1188.6,402.1,1189.4,401.8,1190.9,401.1z"/>
			<path class="st2" d="M974.9,454.9c15.9,7.9,31.1,15.5,46.1,23.2c1.1,0.5,1.8,2.8,1.8,4.2c0.1,25.9,0.1,51.7,0.1,77.6
				c0,24.2,0,48.5,0,73.4c-1.4-0.6-2.5-1.1-3.5-1.6c-49.9-24.9-99.8-49.9-149.7-74.8c-2-1-2.9-2.1-2.9-4.5
				c0.1-49.5,0.1-99,0.1-148.5c0-0.8,0.1-1.7,0.1-2.9c1.3,0.5,2.3,0.9,3.3,1.4c13.8,6.9,27.6,13.9,41.6,20.7
				c2.4,1.2,3.1,2.6,3.1,5.1c-0.1,18.6-0.1,37.2-0.1,55.9c0,7.3,1.6,8.9,9.1,8.9c5.3,0,10.5-0.1,15.7,0.1c1.5,0.1,3.4,0.8,4.5,1.9
				c6.5,6.2,12.8,12.6,19.1,19c2.1,2.2,4.4,3.8,7.6,2.6c3.3-1.3,4-4.1,4-7.3c-0.1-16.6,0-33.2,0-49.9
				C974.9,458.3,974.9,456.9,974.9,454.9z"/>
			<path class="st2" d="M1183.1,391.2c-1.4,0.8-2.5,1.5-3.5,2c-49.2,24.6-98.5,49.2-147.7,73.9c-2.1,1-3.6,1.2-5.8,0.1
				c-13.4-6.9-27-13.6-40.5-20.3c-1-0.5-1.9-1-3.4-1.8c4.2-2.3,8-4.3,11.8-6.3c44.9-23.8,89.8-47.6,134.6-71.5
				c2.5-1.3,4.3-1.4,6.9-0.1c14.7,7.5,29.4,14.8,44.2,22.2C1180.6,389.8,1181.6,390.4,1183.1,391.2z"/>
			<path class="st2" d="M874.5,391.1c17.5-8.7,34.2-17.1,50.9-25.5c33.5-16.7,66.9-33.4,100.4-50.2c2.2-1.1,3.9-1.3,6.2-0.1
				c12.6,6.5,25.4,12.8,38.6,19.4c-1.5,0.9-2.5,1.5-3.5,2.1c-47.6,25.3-95.2,50.6-142.8,75.9c-2.4,1.3-4.3,1.5-6.8,0.2
				c-12.9-6.6-25.8-13-38.8-19.5C877.5,392.8,876.3,392.1,874.5,391.1z"/>
			<path class="st2" d="M1118.7,358.8c-7.9,4.2-15,8-22.2,11.8c-41.4,22-82.9,44-124.3,66.1c-2.4,1.3-4.3,1.5-6.8,0.2
				c-10.2-5.3-20.4-10.3-31.2-15.7c1.3-0.8,2.2-1.3,3.1-1.8c47.9-25.5,95.9-50.9,143.9-76.3c1.3-0.7,3.3-1.2,4.4-0.6
				C1096.4,347.6,1107.2,353,1118.7,358.8z"/>
			<path class="st2" d="M927.1,481.2c0-16.8,0-33.2,0-50.2c3.6,1.8,6.9,3.4,10.2,5.1c7.7,3.8,15.4,7.6,23.1,11.6
				c1.1,0.6,2.4,2,2.5,3.1c0.2,15,0.1,29.9,0.1,44.9c-0.3,0.3-0.7,0.5-1,0.8c-3.6-3.9-7.3-7.6-10.8-11.6c-2.4-2.8-5.3-3.9-8.9-3.7
				C937.2,481.4,932.2,481.2,927.1,481.2z"/>
		</g>
		<g>
			<ellipse class="st1" cx="859.5" cy="562.1" rx="75" ry="75"/>
			<path class="st3" d="M862.2,520.8c0.3,0.1,0.5,0.2,0.8,0.3c1.4,0.7,2.2,1.8,2.4,3.4c0,0.4,0,0.7,0,1.1c0,16.3,0,32.6,0,48.8
				c0,0.3,0,0.6,0,1.1c0.3-0.3,0.5-0.4,0.7-0.6c5-5,10-10,15.1-15c1.6-1.6,3.7-2.1,5.3-0.8c1.5,1.1,2.8,2.5,3.9,3.9
				c1.1,1.4,0.8,3.4-0.4,4.7c-0.2,0.2-0.3,0.4-0.5,0.5c-8.9,8.9-17.8,17.8-26.7,26.7c-1.6,1.6-3.6,2-5.4,0.9
				c-0.4-0.2-0.8-0.6-1.1-0.9c-8.9-8.9-17.8-17.8-26.8-26.7c-2-2-2-4.4,0-6.4c0.6-0.6,1.3-1.3,1.9-1.9c2-2,4.4-2,6.3,0
				c5,5.1,10.1,10.1,15.1,15.2c0.2,0.2,0.4,0.4,0.7,0.7c0-0.4,0-0.7,0-1c0-16.2,0-32.4,0-48.5c0-3.3,0.6-4.1,3.5-5.3
				C858.8,520.8,860.5,520.8,862.2,520.8z"/>
		</g>
	</g>
</g>
</svg>
